<svg xmlns="http://www.w3.org/2000/svg" width="1200" height="850" viewBox="0 0 1200 850" role="img" aria-labelledby="title desc"><title id="title">生态由产品、渠道与资本三层构成</title><desc id="desc"></desc><rect x="0.0" y="0.0" width="1200.0" height="850.0" rx="0.0" fill="#FFFFFF"/><text x="72.0" y="72.0" font-family="'Source Han Sans CN','Microsoft YaHei','Noto Sans CJK SC',sans-serif" font-size="36" fill="#1A5276" text-anchor="start" font-weight="700"><tspan x="72.0" dy="0">生态由产品、渠道与资本三层构成</tspan></text><line x1="72.0" y1="132.0" x2="1128.0" y2="132.0" stroke="#D5DBDB" stroke-width="1"/><text x="72.0" y="822.0" font-family="'Source Han Sans CN','Microsoft YaHei','Noto Sans CJK SC',sans-serif" font-size="16" fill="#6B7280" text-anchor="start" font-weight="400"><tspan x="72.0" dy="0">来源：S003、S017、S024</tspan></text><path d="M 600.0 276.0 C 600.0 328.0 253.3 328.0 253.3 380.0" fill="none" stroke="#6B7280" stroke-width="2.2" stroke-linecap="round" stroke-linejoin="round"/><polygon points="253.3,380.0 246.3,368.0 260.3,368.0" fill="#6B7280"/><rect x="381.7" y="303.0" width="90.0" height="25.0" rx="8.0" fill="#FFFFFF"/><text x="426.7" y="321.0" font-family="'Source Han Sans CN','Microsoft YaHei','Noto Sans CJK SC',sans-serif" font-size="14" fill="#6B7280" text-anchor="middle" font-weight="400"><tspan x="426.7" dy="0">推出</tspan></text><path d="M 600.0 276.0 C 600.0 328.0 600.0 328.0 600.0 380.0" fill="none" stroke="#6B7280" stroke-width="2.2" stroke-linecap="round" stroke-linejoin="round"/><polygon points="600.0,380.0 593.0,368.0 607.0,368.0" fill="#6B7280"/><rect x="555.0" y="303.0" width="90.0" height="25.0" rx="8.0" fill="#FFFFFF"/><text x="600.0" y="321.0" font-family="'Source Han Sans CN','Microsoft YaHei','Noto Sans CJK SC',sans-serif" font-size="14" fill="#6B7280" text-anchor="middle" font-weight="400"><tspan x="600.0" dy="0">合作</tspan></text><path d="M 600.0 276.0 C 600.0 328.0 946.7 328.0 946.7 380.0" fill="none" stroke="#6B7280" stroke-width="2.2" stroke-linecap="round" stroke-linejoin="round"/><polygon points="946.7,380.0 939.7,368.0 953.7,368.0" fill="#6B7280"/><rect x="728.3" y="303.0" width="90.0" height="25.0" rx="8.0" fill="#FFFFFF"/><text x="773.3" y="321.0" font-family="'Source Han Sans CN','Microsoft YaHei','Noto Sans CJK SC',sans-serif" font-size="14" fill="#6B7280" text-anchor="middle" font-weight="400"><tspan x="773.3" dy="0">采用</tspan></text><path d="M 253.3 466.0 C 253.3 518.0 253.3 518.0 253.3 570.0" fill="none" stroke="#6B7280" stroke-width="2.2" stroke-linecap="round" stroke-linejoin="round"/><polygon points="253.3,570.0 246.3,558.0 260.3,558.0" fill="#6B7280"/><rect x="208.3" y="493.0" width="90.0" height="25.0" rx="8.0" fill="#FFFFFF"/><text x="253.3" y="511.0" font-family="'Source Han Sans CN','Microsoft YaHei','Noto Sans CJK SC',sans-serif" font-size="14" fill="#6B7280" text-anchor="middle" font-weight="400"><tspan x="253.3" dy="0">服务</tspan></text><path d="M 600.0 613.0 C 600.0 423.0 600.0 423.0 600.0 233.0" fill="none" stroke="#6B7280" stroke-width="2.2" stroke-linecap="round" stroke-linejoin="round"/><polygon points="600.0,233.0 593.0,221.0 607.0,221.0" fill="#6B7280"/><rect x="555.0" y="398.0" width="90.0" height="25.0" rx="8.0" fill="#FFFFFF"/><text x="600.0" y="416.0" font-family="'Source Han Sans CN','Microsoft YaHei','Noto Sans CJK SC',sans-serif" font-size="14" fill="#6B7280" text-anchor="middle" font-weight="400"><tspan x="600.0" dy="0">投资</tspan></text><path d="M 946.7 613.0 C 946.7 423.0 600.0 423.0 600.0 233.0" fill="none" stroke="#B03A2E" stroke-width="2.2" stroke-dasharray="10 8" stroke-linecap="round" stroke-linejoin="round"/><polygon points="600.0,233.0 593.0,221.0 607.0,221.0" fill="#B03A2E"/><rect x="728.3" y="398.0" width="90.0" height="25.0" rx="8.0" fill="#FFFFFF"/><text x="773.3" y="416.0" font-family="'Source Han Sans CN','Microsoft YaHei','Noto Sans CJK SC',sans-serif" font-size="14" fill="#B03A2E" text-anchor="middle" font-weight="400"><tspan x="773.3" dy="0">影响</tspan></text><rect x="525.0" y="190.0" width="150.0" height="86.0" rx="18.0" fill="#1A5276" stroke="#D5DBDB"/><text x="600.0" y="229.0" font-family="'Source Han Sans CN','Microsoft YaHei','Noto Sans CJK SC',sans-serif" font-size="19" fill="#FFFFFF" text-anchor="middle" font-weight="700"><tspan x="600.0" dy="0">研究对象</tspan></text><rect x="178.3" y="380.0" width="150.0" height="86.0" rx="18.0" fill="#2E86C1" stroke="#D5DBDB"/><text x="253.3" y="419.0" font-family="'Source Han Sans CN','Microsoft YaHei','Noto Sans CJK SC',sans-serif" font-size="19" fill="#FFFFFF" text-anchor="middle" font-weight="700"><tspan x="253.3" dy="0">核心产品</tspan></text><rect x="525.0" y="380.0" width="150.0" height="86.0" rx="18.0" fill="#F1F1F3" stroke="#D5DBDB"/><text x="600.0" y="419.0" font-family="'Source Han Sans CN','Microsoft YaHei','Noto Sans CJK SC',sans-serif" font-size="19" fill="#2C3E50" text-anchor="middle" font-weight="700"><tspan x="600.0" dy="0">渠道伙伴</tspan></text><rect x="871.7" y="380.0" width="150.0" height="86.0" rx="18.0" fill="#E8F7F0" stroke="#D5DBDB"/><text x="946.7" y="419.0" font-family="'Source Han Sans CN','Microsoft YaHei','Noto Sans CJK SC',sans-serif" font-size="19" fill="#2C3E50" text-anchor="middle" font-weight="700"><tspan x="946.7" dy="0">基础技术</tspan></text><rect x="178.3" y="570.0" width="150.0" height="86.0" rx="18.0" fill="#FFF4E5" stroke="#D5DBDB"/><text x="253.3" y="609.0" font-family="'Source Han Sans CN','Microsoft YaHei','Noto Sans CJK SC',sans-serif" font-size="19" fill="#2C3E50" text-anchor="middle" font-weight="700"><tspan x="253.3" dy="0">企业客户</tspan></text><rect x="525.0" y="570.0" width="150.0" height="86.0" rx="18.0" fill="#F1F1F3" stroke="#D5DBDB"/><text x="600.0" y="609.0" font-family="'Source Han Sans CN','Microsoft YaHei','Noto Sans CJK SC',sans-serif" font-size="19" fill="#2C3E50" text-anchor="middle" font-weight="700"><tspan x="600.0" dy="0">投资机构</tspan></text><rect x="871.7" y="570.0" width="150.0" height="86.0" rx="18.0" fill="#FFF4E5" stroke="#D5DBDB"/><text x="946.7" y="609.0" font-family="'Source Han Sans CN','Microsoft YaHei','Noto Sans CJK SC',sans-serif" font-size="19" fill="#2C3E50" text-anchor="middle" font-weight="700"><tspan x="946.7" dy="0">潜在监管</tspan></text><line x1="770.0" y1="788.0" x2="812.0" y2="788.0" stroke="#6B7280" stroke-width="2"/><text x="822.0" y="794.0" font-family="'Source Han Sans CN','Microsoft YaHei','Noto Sans CJK SC',sans-serif" font-size="15" fill="#6B7280" text-anchor="start" font-weight="400"><tspan x="822.0" dy="0">事实关系</tspan></text><line x1="930.0" y1="788.0" x2="972.0" y2="788.0" stroke="#B03A2E" stroke-width="2" stroke-dasharray="8 6"/><text x="982.0" y="794.0" font-family="'Source Han Sans CN','Microsoft YaHei','Noto Sans CJK SC',sans-serif" font-size="15" fill="#6B7280" text-anchor="start" font-weight="400"><tspan x="982.0" dy="0">假设关系</tspan></text></svg>